# xmcd
#
# Track frame offsets:
#	150
#	20354
#	33500
#	48392
#	66354
#	85791
#	103494
#	120963
#	138830
#	154093
#	168429
#	184740
#	198439
#	214047
#	232203
#	248615
#	259280
#	278764
#
# Disc length: 3920 seconds
#
# Revision: 1
# Processed by: cddbd v1.5.1PL0 Copyright (c) Steve Scherf et al.
# Submitted via: audiograbber 1.83.01
#
DISCID=fe0f4e12
DTITLE=Various Artist - Hott Country 110
DYEAR=2005
DGENRE=Country April
TTITLE0=Road Hammers - I'm A Road Hammer
TTITLE1=Alan Jackson - The Talkin' Song Repair Blues
TTITLE2=Hot Apple Pie - Hillbillies
TTITLE3=Van Zant - Help Somebody
TTITLE4=Rascal Flatts - Fast Cars And Freedom
TTITLE5=Reba McEntire - My Sister
TTITLE6=Hanna-McEuan - Something Like A Broken Heart
TTITLE7=Darryl Worley - If Something Should Happen
TTITLE8=Tracy Byrd - Tiny Town
TTITLE9=Brian McComas - The Middle Of Nowhere
TTITLE10=Pat Green - Baby Doll
TTITLE11=Keith Anderson - Pickin' Wildflowers
TTITLE12=Kenny Chesney - Keg In The Closet
TTITLE13=Rebecca Lynn Howard - No One'll Ever Know
TTITLE14=Jamie O'Neal - Somebody's Hero
TTITLE15=Dallas Wayne - 3:30 In The Afternoon
TTITLE16=Steve Earle - The Revolution Starts Now
TTITLE17=Diamond Rio - One Believer
EXTD=
EXTT0=
EXTT1=
EXTT2=
EXTT3=
EXTT4=
EXTT5=
EXTT6=
EXTT7=
EXTT8=
EXTT9=
EXTT10=
EXTT11=
EXTT12=
EXTT13=
EXTT14=
EXTT15=
EXTT16=
EXTT17=
PLAYORDER=
